# xmcd CD database file
#
# Track frame offsets:
#	150
#	25205
#	40927
#	59687
#	76962
#	92527
#	112035
#	124507
#	146832
#	165632
#
# Disc length: 2388 seconds
#
# Revision: 0
# Processed by: cddbd v1.5.1PL0 Copyright (c) Steve Scherf et al.
# Submitted via: CDex 1.51
#
DISCID=8309520a
DTITLE=Steve Gut - Steve Gut and RTB Big Band
DYEAR=1991
DGENRE=Jazz
TTITLE0=Blues For mr. Tee-Dee-Boom
TTITLE1=54th Street
TTITLE2=Polka Dots And Moon Beams
TTITLE3=Mimoscope
TTITLE4=One For Les
TTITLE5=Cvece Cafnalo
TTITLE6=Morning News For my Friend
TTITLE7=Mimilus
TTITLE8=I QMM
TTITLE9=Madam 'B'
EXTD=YEAR: 1991
EXTT0=
EXTT1=
EXTT2=
EXTT3=
EXTT4=
EXTT5=
EXTT6=
EXTT7=
EXTT8=
EXTT9=
PLAYORDER=
